<svg id="Capa_1" data-name="Capa 1" xmlns="http://www.w3.org/2000/svg" viewBox="0 0 800 654.39"><defs><style>.cls-1{fill:#ca1619;}.cls-2{fill:#1d1d1b;}</style></defs><path class="cls-1" d="M340.74,307.91l-98.38,386H150l95.74-374.75H180.16v51.32H90.83V252.34H340.74Z" transform="translate(0 -48.06)"/><path class="cls-2" d="M336.14,139.77H513.31v68.94H336.14Zm58.61,295.64Q370.06,414.3,370.06,373V48.06h93.11v312.8q0,10.32,6.22,15.94t17.15,5.62h26.77v74.1H472.22Q419.43,456.52,394.75,435.41Z" transform="translate(0 -48.06)"/><path class="cls-2" d="M522.1,385.7H699.27v68.94H522.1Zm58.61,295.64Q556,660.23,556,618.93V294h93.11v312.8q0,10.32,6.22,15.94t17.15,5.62h26.77v74.1H658.18Q605.4,702.45,580.71,681.34Z" transform="translate(0 -48.06)"/><path class="cls-2" d="M513.31,208.71v0Z" transform="translate(0 -48.06)"/><rect class="cls-2" y="91.71" width="800" height="68.94"/><polygon class="cls-2" points="502.68 334.36 502.68 408.46 800 408.45 800 334.36 502.68 334.36"/></svg>